solid generated by lidarsim
facet normal 1 0 0
outer loop
vertex 302 0 7
vertex 302 0 0
vertex 302 1 0
endloop
endfacet
facet normal 1 0 0
outer loop
vertex 302 0 7
vertex 302 1 0
vertex 302 1 7
endloop
endfacet
facet normal -1 0 0
outer loop
vertex 0 0 7
vertex 0 1 0
vertex 0 0 0
endloop
endfacet
facet normal -1 0 0
outer loop
vertex 0 0 7
vertex 0 1 7
vertex 0 1 0
endloop
endfacet
facet normal 0 1 0
outer loop
vertex 302 1 7
vertex 302 1 0
vertex 0 1 0
endloop
endfacet
facet normal 0 1 0
outer loop
vertex 302 1 7
vertex 0 1 0
vertex 0 1 7
endloop
endfacet
facet normal 0 -1 0
outer loop
vertex 302 0 7
vertex 0 0 0
vertex 302 0 0
endloop
endfacet
facet normal 0 -1 0
outer loop
vertex 302 0 7
vertex 0 0 7
vertex 0 0 0
endloop
endfacet
facet normal 0 0 1
outer loop
vertex 302 1 7
vertex 0 1 7
vertex 0 0 7
endloop
endfacet
facet normal 0 0 1
outer loop
vertex 302 1 7
vertex 0 0 7
vertex 302 0 7
endloop
endfacet
facet normal 0 0 -1
outer loop
vertex 302 1 0
vertex 0 0 0
vertex 0 1 0
endloop
endfacet
facet normal 0 0 -1
outer loop
vertex 302 1 0
vertex 302 0 0
vertex 0 0 0
endloop
endfacet
facet normal 1 0 0
outer loop
vertex 1 1 7
vertex 1 1 0
vertex 1 201 0
endloop
endfacet
facet normal 1 0 0
outer loop
vertex 1 1 7
vertex 1 201 0
vertex 1 201 7
endloop
endfacet
facet normal -1 0 0
outer loop
vertex 0 1 7
vertex 0 201 0
vertex 0 1 0
endloop
endfacet
facet normal -1 0 0
outer loop
vertex 0 1 7
vertex 0 201 7
vertex 0 201 0
endloop
endfacet
facet normal 0 1 0
outer loop
vertex 1 201 7
vertex 1 201 0
vertex 0 201 0
endloop
endfacet
facet normal 0 1 0
outer loop
vertex 1 201 7
vertex 0 201 0
vertex 0 201 7
endloop
endfacet
facet normal 0 -1 0
outer loop
vertex 1 1 7
vertex 0 1 0
vertex 1 1 0
endloop
endfacet
facet normal 0 -1 0
outer loop
vertex 1 1 7
vertex 0 1 7
vertex 0 1 0
endloop
endfacet
facet normal 0 0 1
outer loop
vertex 1 201 7
vertex 0 201 7
vertex 0 1 7
endloop
endfacet
facet normal 0 0 1
outer loop
vertex 1 201 7
vertex 0 1 7
vertex 1 1 7
endloop
endfacet
facet normal 0 0 -1
outer loop
vertex 1 201 0
vertex 0 1 0
vertex 0 201 0
endloop
endfacet
facet normal 0 0 -1
outer loop
vertex 1 201 0
vertex 1 1 0
vertex 0 1 0
endloop
endfacet
facet normal 1 0 0
outer loop
vertex 302 1 7
vertex 302 1 0
vertex 302 201 0
endloop
endfacet
facet normal 1 0 0
outer loop
vertex 302 1 7
vertex 302 201 0
vertex 302 201 7
endloop
endfacet
facet normal -1 0 0
outer loop
vertex 301 1 7
vertex 301 201 0
vertex 301 1 0
endloop
endfacet
facet normal -1 0 0
outer loop
vertex 301 1 7
vertex 301 201 7
vertex 301 201 0
endloop
endfacet
facet normal 0 1 0
outer loop
vertex 302 201 7
vertex 302 201 0
vertex 301 201 0
endloop
endfacet
facet normal 0 1 0
outer loop
vertex 302 201 7
vertex 301 201 0
vertex 301 201 7
endloop
endfacet
facet normal 0 -1 0
outer loop
vertex 302 1 7
vertex 301 1 0
vertex 302 1 0
endloop
endfacet
facet normal 0 -1 0
outer loop
vertex 302 1 7
vertex 301 1 7
vertex 301 1 0
endloop
endfacet
facet normal 0 0 1
outer loop
vertex 302 201 7
vertex 301 201 7
vertex 301 1 7
endloop
endfacet
facet normal 0 0 1
outer loop
vertex 302 201 7
vertex 301 1 7
vertex 302 1 7
endloop
endfacet
facet normal 0 0 -1
outer loop
vertex 302 201 0
vertex 301 1 0
vertex 301 201 0
endloop
endfacet
facet normal 0 0 -1
outer loop
vertex 302 201 0
vertex 302 1 0
vertex 301 1 0
endloop
endfacet
facet normal 1 0 0
outer loop
vertex 302 201 7
vertex 302 201 0
vertex 302 202 0
endloop
endfacet
facet normal 1 0 0
outer loop
vertex 302 201 7
vertex 302 202 0
vertex 302 202 7
endloop
endfacet
facet normal -1 0 0
outer loop
vertex 0 201 7
vertex 0 202 0
vertex 0 201 0
endloop
endfacet
facet normal -1 0 0
outer loop
vertex 0 201 7
vertex 0 202 7
vertex 0 202 0
endloop
endfacet
facet normal 0 1 0
outer loop
vertex 302 202 7
vertex 302 202 0
vertex 0 202 0
endloop
endfacet
facet normal 0 1 0
outer loop
vertex 302 202 7
vertex 0 202 0
vertex 0 202 7
endloop
endfacet
facet normal 0 -1 0
outer loop
vertex 302 201 7
vertex 0 201 0
vertex 302 201 0
endloop
endfacet
facet normal 0 -1 0
outer loop
vertex 302 201 7
vertex 0 201 7
vertex 0 201 0
endloop
endfacet
facet normal 0 0 1
outer loop
vertex 302 202 7
vertex 0 202 7
vertex 0 201 7
endloop
endfacet
facet normal 0 0 1
outer loop
vertex 302 202 7
vertex 0 201 7
vertex 302 201 7
endloop
endfacet
facet normal 0 0 -1
outer loop
vertex 302 202 0
vertex 0 201 0
vertex 0 202 0
endloop
endfacet
facet normal 0 0 -1
outer loop
vertex 302 202 0
vertex 302 201 0
vertex 0 201 0
endloop
endfacet
endsolid PRO2STL version 1.0
